<svg xmlns="http://www.w3.org/2000/svg" viewBox="0 0 800 1150" width="800" height="1150" style="background:#ffffff;font-family:system-ui,-apple-system,'Segoe UI',Roboto,sans-serif;">
  <defs>
    <linearGradient id="gradOrange" x1="0%" y1="0%" x2="100%" y2="100%">
      <stop offset="0%" stop-color="#FF5500" />
      <stop offset="100%" stop-color="#E65100" />
    </linearGradient>
    <linearGradient id="gradNavy" x1="0%" y1="0%" x2="100%" y2="100%">
      <stop offset="0%" stop-color="#0B2545" />
      <stop offset="100%" stop-color="#001D3D" />
    </linearGradient>
  </defs>

  <!-- Background Canvas -->
  <rect width="800" height="1150" fill="#FFFDFB"/>

  <!-- Top Accent Header Bar -->
  <rect width="800" height="18" fill="url(#gradOrange)"/>

  <!-- Header Section with Logo -->
  <g transform="translate(40, 45)">
    <text x="0" y="55" font-weight="900" font-size="64" fill="#FF5500" letter-spacing="-1">Up</text>
    <text x="92" y="55" font-weight="900" font-size="64" fill="#0B2545" letter-spacing="-2">Conta</text>
    <g transform="translate(260, 6) scale(0.6)">
      <path d="M 12,50 L 52,50 C 62,50 68,44 68,34 L 68,10" fill="none" stroke="#FF5500" stroke-width="20" stroke-linecap="round" stroke-linejoin="round"/>
      <path d="M 50,22 L 68,4 L 86,22" fill="none" stroke="#FF5500" stroke-width="18" stroke-linecap="round" stroke-linejoin="round"/>
    </g>
    <rect x="520" y="15" width="200" height="42" rx="21" fill="#FFF3E0" stroke="#FFB74D" stroke-width="2"/>
    <text x="620" y="42" font-weight="800" font-size="16" fill="#E65100" text-anchor="middle">PLAN ILIMITADO</text>
  </g>

  <!-- Title Card -->
  <g transform="translate(40, 150)">
    <rect width="720" height="140" rx="24" fill="url(#gradOrange)"/>
    <text x="360" y="58" font-weight="900" font-size="34" fill="#FFFFFF" text-anchor="middle" letter-spacing="1">COM FUN ILIMITADO</text>
    <text x="360" y="98" font-weight="700" font-size="20" fill="#FFE0B2" text-anchor="middle">Comprobantes Electrónicos &amp; Funciones Ilimitadas</text>
  </g>

  <!-- Feature Highlights Grid -->
  <g transform="translate(40, 320)">
    <!-- Box 1 -->
    <rect x="0" y="0" width="345" height="105" rx="16" fill="#FFFFFF" stroke="#FFE0B2" stroke-width="2"/>
    <circle cx="45" cy="52" r="24" fill="#FFF3E0"/>
    <text x="45" y="60" font-size="24" text-anchor="middle">⚡</text>
    <text x="85" y="44" font-weight="800" font-size="18" fill="#0B2545">Emisión Ilimitada</text>
    <text x="85" y="70" font-weight="500" font-size="13" fill="#64748B">Facturas, Retenciones y Guías SRI</text>

    <!-- Box 2 -->
    <rect x="375" y="0" width="345" height="105" rx="16" fill="#FFFFFF" stroke="#FFE0B2" stroke-width="2"/>
    <circle cx="420" cy="52" r="24" fill="#FFF3E0"/>
    <text x="420" y="60" font-size="24" text-anchor="middle">👥</text>
    <text x="460" y="44" font-weight="800" font-size="18" fill="#0B2545">Usuarios Ilimitados</text>
    <text x="460" y="70" font-weight="500" font-size="13" fill="#64748B">Roles comerciales y contables</text>

    <!-- Box 3 -->
    <rect x="0" y="125" width="345" height="105" rx="16" fill="#FFFFFF" stroke="#FFE0B2" stroke-width="2"/>
    <circle cx="45" cy="177" r="24" fill="#FFF3E0"/>
    <text x="45" y="185" font-size="24" text-anchor="middle">📦</text>
    <text x="85" y="169" font-weight="800" font-size="18" fill="#0B2545">Catálogo Sin Límites</text>
    <text x="85" y="195" font-weight="500" font-size="13" fill="#64748B">Productos, servicios y tarifas SRI</text>

    <!-- Box 4 -->
    <rect x="375" y="125" width="345" height="105" rx="16" fill="#FFFFFF" stroke="#FFE0B2" stroke-width="2"/>
    <circle cx="420" cy="177" r="24" fill="#FFF3E0"/>
    <text x="420" y="185" font-size="24" text-anchor="middle">🛡️</text>
    <text x="460" y="169" font-weight="800" font-size="18" fill="#0B2545">Firma Electrónica</text>
    <text x="460" y="195" font-weight="500" font-size="13" fill="#64748B">Archivo .p12 integrado y seguro</text>
  </g>

  <!-- Detailed Feature List -->
  <g transform="translate(40, 580)">
    <rect width="720" height="380" rx="20" fill="#FFFFFF" stroke="#F1F5F9" stroke-width="2"/>
    
    <text x="40" y="45" font-weight="900" font-size="20" fill="#0B2545">BENEFICIOS CLAVE DEL PLAN</text>
    <line x1="40" y1="65" x2="680" y2="65" stroke="#E2E8F0" stroke-width="1.5"/>

    <!-- Items -->
    <g transform="translate(40, 95)" font-weight="600" font-size="16" fill="#334155">
      <circle cx="12" cy="0" r="10" fill="#FF5500"/>
      <text x="12" y="4" font-size="12" fill="#FFFFFF" text-anchor="middle" font-weight="900">✓</text>
      <text x="35" y="5">Acceso 100% Web desde cualquier dispositivo (PC, Tablet o Móvil)</text>
      
      <g transform="translate(0, 50)">
        <circle cx="12" cy="0" r="10" fill="#FF5500"/>
        <text x="12" y="4" font-size="12" fill="#FFFFFF" text-anchor="middle" font-weight="900">✓</text>
        <text x="35" y="5">Envío automático de comprobantes por WhatsApp y Correo</text>
      </g>
      
      <g transform="translate(0, 100)">
        <circle cx="12" cy="0" r="10" fill="#FF5500"/>
        <text x="12" y="4" font-size="12" fill="#FFFFFF" text-anchor="middle" font-weight="900">✓</text>
        <text x="35" y="5">Reporte ATS y liquidación de impuestos automatizada</text>
      </g>

      <g transform="translate(0, 150)">
        <circle cx="12" cy="0" r="10" fill="#FF5500"/>
        <text x="12" y="4" font-size="12" fill="#FFFFFF" text-anchor="middle" font-weight="900">✓</text>
        <text x="35" y="5">Cuentas por Cobrar y Cuentas por Pagar sincronizadas</text>
      </g>

      <g transform="translate(0, 200)">
        <circle cx="12" cy="0" r="10" fill="#FF5500"/>
        <text x="12" y="4" font-size="12" fill="#FFFFFF" text-anchor="middle" font-weight="900">✓</text>
        <text x="35" y="5">Actualizaciones normativas automáticas según regulaciones del SRI</text>
      </g>

      <g transform="translate(0, 250)">
        <circle cx="12" cy="0" r="10" fill="#FF5500"/>
        <text x="12" y="4" font-size="12" fill="#FFFFFF" text-anchor="middle" font-weight="900">✓</text>
        <text x="35" y="5">Soporte técnico prioritario y capacitación virtual</text>
      </g>
    </g>
  </g>

  <!-- Bottom CTA / Contact Bar -->
  <g transform="translate(40, 990)">
    <rect width="720" height="110" rx="20" fill="url(#gradNavy)"/>
    <text x="40" y="50" font-weight="900" font-size="22" fill="#FFFFFF">Impulsa tu Gestión Contable Hoy</text>
    <text x="40" y="80" font-weight="500" font-size="14" fill="#94A3B8">www.upconta.com • Software Contable Cloud Ecuador</text>
    <rect x="520" y="32" width="160" height="46" rx="23" fill="#FF5500"/>
    <text x="600" y="61" font-weight="800" font-size="15" fill="#FFFFFF" text-anchor="middle">CONSULTAR</text>
  </g>
</svg>