<svg xmlns="http://www.w3.org/2000/svg" viewBox="0 0 800 1150" width="800" height="1150" style="background:#ffffff;font-family:system-ui,-apple-system,'Segoe UI',Roboto,sans-serif;">
  <defs>
    <linearGradient id="gradContNavy" x1="0%" y1="0%" x2="100%" y2="100%">
      <stop offset="0%" stop-color="#0B2545" />
      <stop offset="100%" stop-color="#133E6E" />
    </linearGradient>
    <linearGradient id="gradContBlue" x1="0%" y1="0%" x2="100%" y2="100%">
      <stop offset="0%" stop-color="#0284C7" />
      <stop offset="100%" stop-color="#0369A1" />
    </linearGradient>
  </defs>

  <rect width="800" height="1150" fill="#F8FAFC"/>
  <rect width="800" height="18" fill="url(#gradContNavy)"/>

  <!-- Header with UpConta Logo -->
  <g transform="translate(40, 45)">
    <text x="0" y="55" font-weight="900" font-size="64" fill="#FF5500" letter-spacing="-1">Up</text>
    <text x="92" y="55" font-weight="900" font-size="64" fill="#0B2545" letter-spacing="-2">Conta</text>
    <g transform="translate(260, 6) scale(0.6)">
      <path d="M 12,50 L 52,50 C 62,50 68,44 68,34 L 68,10" fill="none" stroke="#FF5500" stroke-width="20" stroke-linecap="round" stroke-linejoin="round"/>
      <path d="M 50,22 L 68,4 L 86,22" fill="none" stroke="#FF5500" stroke-width="18" stroke-linecap="round" stroke-linejoin="round"/>
    </g>
    <rect x="520" y="15" width="200" height="42" rx="21" fill="#E0F2FE" stroke="#38BDF8" stroke-width="2"/>
    <text x="620" y="42" font-weight="800" font-size="15" fill="#0369A1" text-anchor="middle">ESPECIAL CONTADORES</text>
  </g>

  <!-- Banner Plan Contador + $100 -->
  <g transform="translate(40, 150)">
    <rect width="720" height="160" rx="24" fill="url(#gradContNavy)"/>
    <text x="40" y="65" font-weight="900" font-size="34" fill="#FFFFFF" letter-spacing="1">PLAN CONTADOR</text>
    <text x="40" y="105" font-weight="600" font-size="18" fill="#93C5FD">Plataforma Multi-Empresa para Estudios Contables</text>

    <!-- Big Price Tag -->
    <rect x="500" y="25" width="180" height="110" rx="18" fill="#FF5500"/>
    <text x="590" y="75" font-weight="900" font-size="44" fill="#FFFFFF" text-anchor="middle">$100</text>
    <text x="590" y="108" font-weight="700" font-size="14" fill="#FFE0B2" text-anchor="middle">+ IVA / ANUAL</text>
  </g>

  <!-- Key Specs 3 Columns -->
  <g transform="translate(40, 340)">
    <rect x="0" y="0" width="226" height="110" rx="16" fill="#FFFFFF" stroke="#CBD5E1" stroke-width="2"/>
    <text x="113" y="48" font-weight="900" font-size="30" fill="#0B2545" text-anchor="middle">MULTI-RUC</text>
    <text x="113" y="80" font-weight="600" font-size="13" fill="#64748B" text-anchor="middle">Gestión Centralizada</text>

    <rect x="246" y="0" width="226" height="110" rx="16" fill="#FFFFFF" stroke="#CBD5E1" stroke-width="2"/>
    <text x="359" y="48" font-weight="900" font-size="30" fill="#FF5500" text-anchor="middle">ANUAL</text>
    <text x="359" y="80" font-weight="600" font-size="13" fill="#64748B" text-anchor="middle">Vigencia 12 Meses</text>

    <rect x="492" y="0" width="228" height="110" rx="16" fill="#FFFFFF" stroke="#CBD5E1" stroke-width="2"/>
    <text x="606" y="48" font-weight="900" font-size="30" fill="#0284C7" text-anchor="middle">SRI ATS</text>
    <text x="606" y="80" font-weight="600" font-size="13" fill="#64748B" text-anchor="middle">Módulo Automático</text>
  </g>

  <!-- Detailed Specifications -->
  <g transform="translate(40, 480)">
    <rect width="720" height="470" rx="20" fill="#FFFFFF" stroke="#E2E8F0" stroke-width="2"/>
    <text x="40" y="50" font-weight="900" font-size="22" fill="#0B2545">CARACTERÍSTICAS INCLUIDAS</text>
    <line x1="40" y1="72" x2="680" y2="72" stroke="#E2E8F0" stroke-width="1.5"/>

    <g transform="translate(40, 110)" font-weight="600" font-size="16" fill="#334155">
      <circle cx="12" cy="0" r="10" fill="#0B2545"/>
      <text x="12" y="4" font-size="12" fill="#FFFFFF" text-anchor="middle" font-weight="900">✓</text>
      <text x="35" y="5">Panel unificado para administrar todos los clientes contables</text>

      <g transform="translate(0, 56)">
        <circle cx="12" cy="0" r="10" fill="#0B2545"/>
        <text x="12" y="4" font-size="12" fill="#FFFFFF" text-anchor="middle" font-weight="900">✓</text>
        <text x="35" y="5">Generación automática de ATS (Anexo Transaccional Simplificado)</text>
      </g>

      <g transform="translate(0, 112)">
        <circle cx="12" cy="0" r="10" fill="#0B2545"/>
        <text x="12" y="4" font-size="12" fill="#FFFFFF" text-anchor="middle" font-weight="900">✓</text>
        <text x="35" y="5">Descarga masiva de XML y RIDE directamente desde el portal SRI</text>
      </g>

      <g transform="translate(0, 168)">
        <circle cx="12" cy="0" r="10" fill="#0B2545"/>
        <text x="12" y="4" font-size="12" fill="#FFFFFF" text-anchor="middle" font-weight="900">✓</text>
        <text x="35" y="5">Contabilización automática de comprobantes de ventas y compras</text>
      </g>

      <g transform="translate(0, 224)">
        <circle cx="12" cy="0" r="10" fill="#0B2545"/>
        <text x="12" y="4" font-size="12" fill="#FFFFFF" text-anchor="middle" font-weight="900">✓</text>
        <text x="35" y="5">Plan de cuentas normativo ecuatoriano NIIF y formularios SRI</text>
      </g>

      <g transform="translate(0, 280)">
        <circle cx="12" cy="0" r="10" fill="#0B2545"/>
        <text x="12" y="4" font-size="12" fill="#FFFFFF" text-anchor="middle" font-weight="900">✓</text>
        <text x="35" y="5">Reportes financieros exportables a Excel con un solo clic</text>
      </g>

      <g transform="translate(0, 336)">
        <circle cx="12" cy="0" r="10" fill="#0B2545"/>
        <text x="12" y="4" font-size="12" fill="#FFFFFF" text-anchor="middle" font-weight="900">✓</text>
        <text x="35" y="5">Respaldo diario en la nube con seguridad bancaria</text>
      </g>
    </g>
  </g>

  <!-- Footer -->
  <g transform="translate(40, 980)">
    <rect width="720" height="120" rx="20" fill="url(#gradContNavy)"/>
    <text x="40" y="52" font-weight="900" font-size="22" fill="#FFFFFF">Optimiza tu Despacho Contable</text>
    <text x="40" y="84" font-weight="500" font-size="14" fill="#93C5FD">Atención comercial directa: ventas@upconta.com • Ecuador</text>
    <rect x="520" y="36" width="160" height="48" rx="24" fill="#FF5500"/>
    <text x="600" y="66" font-weight="800" font-size="15" fill="#FFFFFF" text-anchor="middle">CONTACTAR</text>
  </g>
</svg>